<svg
            xmlns="http://www.w3.org/2000/svg"
            width="178"
            height="178"
            viewBox="0 0 178 178"
            fill="none"
          >
            <path
              fill-rule="evenodd"
              clip-rule="evenodd"
              d="M72.5202 155.75H105.48C128.627 155.75 140.205 155.75 148.519 150.299C152.106 147.947 155.196 144.913 157.612 141.369C163.167 133.211 163.167 121.841 163.167 99.1163C163.167 76.3842 163.167 65.0219 157.612 56.8636C155.196 53.3192 152.106 50.285 148.519 47.9339C143.179 44.4258 136.489 43.1724 126.247 42.7274C121.359 42.7274 117.154 39.0932 116.197 34.3836C115.466 30.9339 113.566 27.8424 110.819 25.6316C108.071 23.4208 104.645 22.2263 101.119 22.25H76.8812C69.5535 22.25 63.242 27.3304 61.8031 34.3836C60.8464 39.0932 56.6411 42.7274 51.7535 42.7274C41.5185 43.1724 34.8287 44.4332 29.4813 47.9339C25.8962 50.2855 22.8091 53.3197 20.3959 56.8636C14.8334 65.0219 14.8334 76.3842 14.8334 99.1163C14.8334 121.841 14.8334 133.203 20.3885 141.369C22.7915 144.899 25.8768 147.933 29.4813 150.299C37.7954 155.75 49.3728 155.75 72.5202 155.75ZM89 68.7747C71.9343 68.7747 58.0948 82.3546 58.0948 99.1089C58.0948 115.871 71.9343 129.45 89 129.45C106.066 129.45 119.905 115.871 119.905 99.1163C119.905 82.3546 106.066 68.7747 89 68.7747ZM89 80.9084C78.765 80.9084 70.4584 89.0593 70.4584 99.1163C70.4584 109.166 78.765 117.317 89 117.317C99.235 117.317 107.542 109.166 107.542 99.1163C107.542 89.0593 99.235 80.9084 89 80.9084ZM124.022 74.8416C124.022 71.4892 126.788 68.7747 130.207 68.7747H138.44C141.851 68.7747 144.625 71.4892 144.625 74.8416C144.609 76.465 143.95 78.0159 142.791 79.1535C141.633 80.291 140.07 80.9222 138.447 80.9084H130.207C129.403 80.9162 128.604 80.7655 127.858 80.4649C127.112 80.1642 126.432 79.7195 125.858 79.1561C125.283 78.5928 124.826 77.9218 124.51 77.1815C124.195 76.4412 124.029 75.6461 124.022 74.8416Z"
              fill="#2D52FF"
            />
          </svg>