<svg width="232" height="231" viewBox="0 0 232 231" fill="none" xmlns="http://www.w3.org/2000/svg">
<g clip-path="url(#clip0_40_28)">
<path d="M145.773 190.974L144.416 188.606L142.164 190.146C133.484 196.08 124.077 199.362 115.916 199.362C107.755 199.362 98.3471 196.08 89.6679 190.146L87.4152 188.606L86.0588 190.974C84.5995 193.522 82.4934 195.639 79.9532 197.112C77.4133 198.585 74.5295 199.361 71.5936 199.362C71.5933 199.362 71.5931 199.362 71.5929 199.362H58.3295C51.3614 199.362 44.6788 196.593 39.7516 191.666C34.8244 186.739 32.0564 180.056 32.0564 173.088V115.502C32.0564 93.2613 40.8915 71.9313 56.6182 56.2046C72.3449 40.478 93.6749 31.6428 115.916 31.6428C138.157 31.6428 159.487 40.478 175.213 56.2046C190.94 71.9313 199.775 93.2613 199.775 115.502V173.088C199.775 180.056 197.007 186.739 192.08 191.666C187.153 196.593 180.47 199.362 173.502 199.362H160.239C160.238 199.362 160.238 199.362 160.238 199.362C157.302 199.361 154.418 198.585 151.878 197.112C149.338 195.639 147.232 193.522 145.773 190.974ZM49.761 181.657L51.5429 179.875L49.761 181.657C52.0335 183.929 55.1157 185.206 58.3295 185.206H71.5936H73.151L73.8475 183.813L75.8534 179.801L76.5777 178.353L75.5609 177.092C66.9677 166.438 60.8495 152.121 60.8495 134.698C60.8495 127.396 62.0791 120.135 64.3057 113.288C64.7802 111.83 65.715 110.566 66.9696 109.685C68.2243 108.804 69.731 108.355 71.2631 108.404L71.2742 108.404C78.8444 108.614 86.3495 106.954 93.1252 103.572C99.9009 100.189 105.738 95.1883 110.12 89.0118L110.126 89.0032C110.779 88.0744 111.646 87.3164 112.654 86.7931C113.662 86.2699 114.78 85.9967 115.916 85.9967C117.051 85.9967 118.17 86.2699 119.178 86.7931C120.185 87.3164 121.052 88.0744 121.705 89.0032L121.711 89.0116C126.093 95.1888 131.93 100.19 138.706 103.573C145.482 106.955 152.987 108.615 160.558 108.404L160.568 108.404C162.101 108.355 163.607 108.804 164.862 109.685C166.117 110.566 167.051 111.83 167.526 113.288C169.753 120.135 170.982 127.387 170.982 134.698C170.982 152.121 164.864 166.438 156.271 177.092L155.254 178.353L155.978 179.801L157.984 183.813L158.681 185.206H160.238H173.502C176.716 185.206 179.798 183.929 182.071 181.657C184.343 179.384 185.62 176.302 185.62 173.088V115.502C185.62 97.0155 178.276 79.2861 165.204 66.214C152.132 53.142 134.402 45.7982 115.916 45.7982C97.4291 45.7982 79.6997 53.142 66.6276 66.214C53.5556 79.2861 46.2118 97.0155 46.2118 115.502V173.088C46.2118 176.302 47.4885 179.384 49.761 181.657ZM117.663 105.912L115.916 104.231L114.169 105.912C104.411 115.295 91.7534 121.082 78.2731 122.322L76.3983 122.494L76.032 124.341C75.3559 127.75 75.012 131.217 75.0049 134.692V134.698C75.0049 150.958 81.6224 163.614 90.1901 172.243C98.9806 181.103 109.284 185.206 115.916 185.206C122.558 185.206 132.842 181.102 141.64 172.244L141.641 172.244C150.209 163.615 156.827 150.958 156.827 134.698L156.827 134.692C156.82 131.22 156.476 127.756 155.799 124.35L155.433 122.504L153.559 122.331C140.077 121.089 127.419 115.299 117.663 105.912Z" fill="white" stroke="black" stroke-width="5.04"/>
</g>
<defs>
<clipPath id="clip0_40_28">
<rect width="230.345" height="230.345" fill="white" transform="translate(0.743164 0.329834)"/>
</clipPath>
</defs>
</svg>
