<svg width="178" height="178" viewBox="0 0 178 178" fill="none" xmlns="http://www.w3.org/2000/svg">
<path fill-rule="evenodd" clip-rule="evenodd" d="M72.5202 155.75H105.48C128.627 155.75 140.205 155.75 148.519 150.299C152.106 147.948 155.196 144.913 157.612 141.369C163.167 133.211 163.167 121.841 163.167 99.1164C163.167 76.3844 163.167 65.022 157.612 56.8637C155.196 53.3193 152.106 50.2851 148.519 47.934C143.179 44.4259 136.489 43.1725 126.247 42.7275C121.359 42.7275 117.154 39.0934 116.197 34.3838C115.466 30.934 113.566 27.8425 110.819 25.6317C108.071 23.4209 104.645 22.2264 101.119 22.2501H76.8812C69.5535 22.2501 63.242 27.3305 61.8031 34.3838C60.8464 39.0934 56.6411 42.7275 51.7535 42.7275C41.5185 43.1725 34.8287 44.4333 29.4813 47.934C25.8962 50.2856 22.8091 53.3198 20.3959 56.8637C14.8334 65.022 14.8334 76.3844 14.8334 99.1164C14.8334 121.841 14.8334 133.203 20.3885 141.369C22.7915 144.9 25.8768 147.933 29.4813 150.299C37.7954 155.75 49.3728 155.75 72.5202 155.75ZM89 68.7748C71.9343 68.7748 58.0948 82.3548 58.0948 99.109C58.0948 115.871 71.9343 129.451 89 129.451C106.066 129.451 119.905 115.871 119.905 99.1164C119.905 82.3548 106.066 68.7748 89 68.7748ZM89 80.9085C78.765 80.9085 70.4584 89.0594 70.4584 99.1164C70.4584 109.166 78.765 117.317 89 117.317C99.235 117.317 107.542 109.166 107.542 99.1164C107.542 89.0594 99.235 80.9085 89 80.9085ZM124.022 74.8417C124.022 71.4893 126.788 68.7748 130.207 68.7748H138.44C141.851 68.7748 144.625 71.4893 144.625 74.8417C144.609 76.4652 143.95 78.016 142.791 79.1536C141.633 80.2912 140.07 80.9224 138.447 80.9085H130.207C129.403 80.9164 128.604 80.7656 127.858 80.465C127.112 80.1643 126.432 79.7196 125.858 79.1562C125.283 78.5929 124.826 77.9219 124.51 77.1816C124.195 76.4413 124.029 75.6462 124.022 74.8417Z" fill="white"/>
</svg>
