<svg width="237" height="151" viewBox="0 0 237 151" fill="none" xmlns="http://www.w3.org/2000/svg">
<path d="M43.7004 61.3534L19.5436 67.0338C18.824 66.5289 18.1678 65.951 17.5747 65.3001C14.9305 62.3334 13.6083 58.109 13.6083 52.627V48.7574H23.6694V53.401C23.6694 57.7865 25.5075 59.9793 29.1836 59.9793C30.9894 59.9793 32.3438 59.4634 33.2467 58.4315C34.2141 57.3351 34.6978 55.5937 34.6978 53.2075C34.6978 50.3697 34.0529 47.8867 32.763 45.7584C31.4732 43.5656 29.0869 40.9536 25.6042 37.9224C21.2186 34.0528 18.1552 30.5701 16.4138 27.4744C14.6725 24.3142 13.8018 20.767 13.8018 16.8329C13.8018 11.4799 15.1562 7.35231 17.8649 4.45008C20.5737 1.48336 24.5078 0 29.6673 0C34.7623 0 38.5997 1.48336 41.1795 4.45008C43.8237 7.35231 45.1459 11.5444 45.1459 17.0264V19.8319H35.0848V16.3492C35.0848 14.0274 34.6334 12.3506 33.7304 11.3187C32.8275 10.2223 31.5054 9.67409 29.7641 9.67409C26.2169 9.67409 24.4433 11.8346 24.4433 16.1557C24.4433 18.6065 25.0883 20.896 26.3781 23.0243C27.7325 25.1526 30.151 27.7324 33.6337 30.7636C38.0838 34.6332 41.1472 38.1481 42.8241 41.3083C44.5009 44.4685 45.3393 48.1769 45.3393 52.4335C45.3393 55.915 44.793 58.8883 43.7004 61.3534Z" fill="black"/>
<path d="M51.4408 65.0964V68.686H80.4631V59.0119H77.3159L51.4408 65.0964Z" fill="black"/>
<path d="M62.0823 57.0309L51.4408 59.5332V0.967408H80.4631V10.6415H62.0823V28.5386H76.6902V38.2126H62.0823V57.0309Z" fill="black"/>
<path d="M86.585 56.8323V68.686H114.737V59.0119H97.2264V54.33L86.585 56.8323Z" fill="black"/>
<path d="M97.2264 48.7668L86.585 51.2691V0.967408H97.2264V48.7668Z" fill="black"/>
<path d="M119.84 49.0125V68.686H148.862V59.0119H130.481V46.5102L119.84 49.0125Z" fill="black"/>
<path d="M130.481 40.947L119.84 43.4493V0.967408H148.862V10.6415H130.481V28.5386H145.089V37.5119L142.109 38.2126H130.481V40.947Z" fill="black"/>
<path d="M154.307 40.9076V53.014C154.307 58.3025 155.629 62.3979 158.273 65.3001C160.982 68.2023 164.884 69.6534 169.979 69.6534C175.074 69.6534 178.943 68.2023 181.588 65.3001C184.296 62.3979 185.651 58.3025 185.651 53.014V43.4366H175.59V53.7879C175.59 57.9155 173.816 59.9793 170.269 59.9793C166.722 59.9793 164.948 57.9155 164.948 53.7879V38.4053L154.307 40.9076Z" fill="black"/>
<path d="M164.948 32.8421L154.307 35.3444V16.6394C154.307 11.3509 155.629 7.25557 158.273 4.35334C160.982 1.45111 164.884 0 169.979 0C175.074 0 178.943 1.45111 181.588 4.35334C184.296 7.25557 185.651 11.3509 185.651 16.6394V23.7983H175.59V15.9622C175.59 11.7701 173.816 9.67409 170.269 9.67409C166.722 9.67409 164.948 11.7701 164.948 15.9622V32.8421Z" fill="black"/>
<path d="M200.337 30.0836V68.686H210.979V27.5813L200.337 30.0836Z" fill="black"/>
<path d="M210.979 22.0181L200.337 24.5204V10.6415H189.212V0.967408H222.104V10.6415H210.979V22.0181Z" fill="black"/>
<path d="M0 83.2814H15.1883L21.9602 131.749H22.1537L28.9255 83.2814H44.1138V151H34.0528V99.7273H33.8593L26.12 151H17.2199L9.48061 99.7273H9.28712V151H0V83.2814Z" fill="black"/>
<path d="M48.9592 83.2814L61.8257 122.171V151H72.4672V122.171L85.3337 83.2814H74.9825L67.7269 108.144H67.5334L60.2779 83.2814H48.9592Z" fill="black"/>
<path d="M105.621 83.2814H116.263V110.853H127.678V83.2814H138.32V151H127.678V120.527H116.263V151H105.621V83.2814Z" fill="black"/>
<path fill-rule="evenodd" clip-rule="evenodd" d="M168.882 83.2814H154.468L143.439 151H153.307L155.242 137.746H167.334V137.553L169.269 151H179.911L168.882 83.2814ZM161.337 95.0838L166.077 128.556H156.499L161.143 95.0838H161.337Z" fill="black"/>
<path d="M185.074 83.2814H195.715V151H185.074V83.2814Z" fill="black"/>
<path fill-rule="evenodd" clip-rule="evenodd" d="M219.454 83.2814H203.685V151H214.326V121.978H218.003C220.453 121.978 222.162 122.59 223.13 123.816C224.162 125.041 224.678 127.202 224.678 130.297V142.68C224.678 145.196 224.742 146.937 224.871 147.904C225 148.872 225.258 149.904 225.645 151H236.48C235.964 149.839 235.642 148.678 235.513 147.517C235.384 146.292 235.319 144.712 235.319 142.777V130.878C235.319 126.879 234.771 123.687 233.675 121.301C232.643 118.914 230.837 117.334 228.257 116.56V116.367C232.901 114.496 235.222 110.046 235.222 103.017V98.8567C235.222 93.5682 233.965 89.6663 231.449 87.151C228.934 84.5713 224.936 83.2814 219.454 83.2814ZM222.936 110.659C221.904 111.755 220.324 112.304 218.196 112.304H214.326V92.9555H219.163C221.034 92.9555 222.388 93.5037 223.227 94.6001C224.129 95.6965 224.581 97.4701 224.581 99.9208V105.145C224.581 107.725 224.033 109.563 222.936 110.659Z" fill="black"/>
</svg>
