 <svg
            xmlns="http://www.w3.org/2000/svg"
            width="fill"
            height="fill"
            viewBox="0 0 159 158"
            fill="none"
          >
            <path
              d="M27.135 52.3926V39.2944C27.135 35.8206 28.515 32.489 30.9714 30.0327C33.4278 27.5763 36.7593 26.1963 40.2332 26.1963H53.3313M27.135 104.785V117.883C27.135 121.357 28.515 124.689 30.9714 127.145C33.4278 129.602 36.7593 130.982 40.2332 130.982H53.3313M105.724 26.1963H118.822C122.296 26.1963 125.628 27.5763 128.084 30.0327C130.54 32.489 131.92 35.8206 131.92 39.2944V52.3926M105.724 130.982H118.822C122.296 130.982 125.628 129.602 128.084 127.145C130.54 124.689 131.92 121.357 131.92 117.883V104.785M59.8804 65.4908H59.9459M99.1749 65.4908H99.2404M63.1549 98.2362C65.2892 100.414 67.8365 102.145 70.6479 103.326C73.4593 104.508 76.4781 105.116 79.5276 105.116C82.5771 105.116 85.596 104.508 88.4074 103.326C91.2187 102.145 93.7661 100.414 95.9003 98.2362"
              stroke="white"
              stroke-width="7"
              stroke-linecap="round"
              stroke-linejoin="round"
            />
          </svg>